<?xml version="1.0" encoding="UTF-8" standalone="no"?>
<!DOCTYPE svg PUBLIC "-//W3C//DTD SVG 1.1//EN" "http://www.w3.org/Graphics/SVG/1.1/DTD/svg11.dtd">
<svg width="100%" height="100%" viewBox="0 0 2274 485" version="1.1" xmlns="http://www.w3.org/2000/svg" xmlns:xlink="http://www.w3.org/1999/xlink" xml:space="preserve" xmlns:serif="http://www.serif.com/" style="fill-rule:evenodd;clip-rule:evenodd;stroke-linecap:round;stroke-linejoin:round;stroke-miterlimit:1.5;">
    <g transform="matrix(1,0,0,1,-746.41578,-885.607958)">
        <g>
            <g id="VectorAnchor" transform="matrix(0.187973,0,0,0.187973,509.637796,834.099233)">
                <g transform="matrix(0.278457,0,0,0.278457,1482.369708,242.212606)">
                    <circle cx="1704.5" cy="954.5" r="531.5" style="fill:rgb(18,217,255);fill-opacity:0;stroke:rgb(18,217,255);stroke-width:617.53px;"/>
                </g>
                <g transform="matrix(1,0,0,1,-2.5,4)">
                    <path d="M1725,930L2194,930" style="fill:none;stroke:rgb(18,217,255);stroke-width:171.95px;"/>
                </g>
                <g transform="matrix(1,0,0,1,-3,17)">
                    <path d="M1418,1351C1418,1351 1628.087,1706 1960,1706C2291.913,1706 2502,1351 2502,1351C2502,1351 2328.882,1584 1960,1584C1591.118,1584 1418,1351 1418,1351Z" style="fill:rgb(18,217,255);fill-opacity:0;stroke:rgb(18,217,255);stroke-width:171.95px;"/>
                </g>
                <g transform="matrix(1,0,0,1.093304,1157,174.479693)">
                    <path d="M800,445L869,1356L731,1356L800,445Z" style="fill:rgb(18,217,255);fill-opacity:0;stroke:rgb(18,217,255);stroke-width:164.13px;"/>
                </g>
                <g transform="matrix(1.606381,-0.767883,0.562173,1.176044,-1020.347137,1220.639832)">
                    <path d="M1195.5,661L1284,918L1107,918L1195.5,661Z" style="fill:rgb(18,217,255);stroke:rgb(18,217,255);stroke-width:15.43px;"/>
                </g>
                <g transform="matrix(-1.606381,-0.767883,-0.562173,1.176044,4934.347137,1220.639832)">
                    <path d="M1195.5,661L1284,918L1107,918L1195.5,661Z" style="fill:rgb(18,217,255);stroke:rgb(18,217,255);stroke-width:15.43px;"/>
                </g>
            </g>
            <g id="CompleteLogo">
                <g id="DockyardLogo" transform="matrix(1,0,0,1,-240.024124,-60)">
                    <g transform="matrix(0.94184,0,0,0.588235,361.36019,534.058824)">
                        <path d="M2997.5,1181.4L2997.5,1191.6C2997.5,1193.477 2996.548,1195 2995.376,1195L1030.624,1195C1029.452,1195 1028.5,1193.477 1028.5,1191.6L1028.5,1181.4C1028.5,1179.523 1029.452,1178 1030.624,1178L2995.376,1178C2996.548,1178 2997.5,1179.523 2997.5,1181.4Z" style="fill:url(#_Linear1);stroke:rgb(18,217,255);stroke-opacity:0;stroke-width:191.03px;"/>
                    </g>
                    <g transform="matrix(1,0,-0,1,48.524124,-2.4375)">
                        <g transform="matrix(336,0,0,336,3154.204,1195.4455)">
                        </g>
                        <text x="1254.796px" y="1195.445px" style="font-family:'AvenirNext-DemiBold', 'Avenir Next', sans-serif;font-weight:600;font-size:336px;fill:url(#_Linear2);">DOCK<tspan x="2260.108px 2448.94px 2686.156px " y="1195.445px 1195.445px 1195.445px ">YAR</tspan>D</text>
                    </g>
                    <g transform="matrix(1,0,0,1,513.024124,272.4375)">
                        <g transform="matrix(224,0,0,224,2214.544,1153.672)">
                        </g>
                        <text x="1265.456px" y="1153.672px" style="font-family:'AvenirNext-Medium', 'Avenir Next', sans-serif;font-weight:500;font-size:224px;fill:url(#_Linear3);">D<tspan x="1457.648px 1614px 1763.184px 1845.616px 2041.616px " y="1153.672px 1153.672px 1153.672px 1153.672px 1153.672px ">ESIGN</tspan></text>
                    </g>
                </g>
            </g>
        </g>
    </g>
    <defs>
        <linearGradient id="_Linear1" x1="0" y1="0" x2="1" y2="0" gradientUnits="userSpaceOnUse" gradientTransform="matrix(1969,0,0,17,1028.5,1186.5)"><stop offset="0" style="stop-color:rgb(18,217,255);stop-opacity:1"/><stop offset="1" style="stop-color:rgb(255,50,242);stop-opacity:1"/></linearGradient>
        <linearGradient id="_Linear2" x1="0" y1="0" x2="1" y2="0" gradientUnits="userSpaceOnUse" gradientTransform="matrix(2230,0,0,527,1220,1194.5)"><stop offset="0" style="stop-color:rgb(18,217,255);stop-opacity:1"/><stop offset="1" style="stop-color:rgb(255,50,242);stop-opacity:1"/></linearGradient>
        <linearGradient id="_Linear3" x1="0" y1="0" x2="1" y2="0" gradientUnits="userSpaceOnUse" gradientTransform="matrix(2028,0,0,479.26278,802,1194.5)"><stop offset="0" style="stop-color:rgb(18,217,255);stop-opacity:1"/><stop offset="1" style="stop-color:rgb(255,50,242);stop-opacity:1"/></linearGradient>
    </defs>
</svg>
